<?xml version="1.0" encoding="UTF-8" standalone="no"?>
<!-- Created with Inkscape (http://www.inkscape.org/) -->

<svg
   xmlns:dc="http://purl.org/dc/elements/1.1/"
   xmlns:cc="http://creativecommons.org/ns#"
   xmlns:rdf="http://www.w3.org/1999/02/22-rdf-syntax-ns#"
   xmlns:svg="http://www.w3.org/2000/svg"
   xmlns="http://www.w3.org/2000/svg"
   xmlns:xlink="http://www.w3.org/1999/xlink"
   xmlns:sodipodi="http://sodipodi.sourceforge.net/DTD/sodipodi-0.dtd"
   xmlns:inkscape="http://www.inkscape.org/namespaces/inkscape"
   width="72.248886mm"
   height="72.248886mm"
   viewBox="0 0 255.99999 255.99999"
   id="svg2"
   version="1.1"
   inkscape:version="0.91 r13725"
   sodipodi:docname="pointlabeler.svg">
  <defs
     id="defs4">
    <linearGradient
       inkscape:collect="always"
       id="linearGradient4234">
      <stop
         style="stop-color:#ffffff;stop-opacity:1;"
         offset="0"
         id="stop4236" />
      <stop
         style="stop-color:#ffffff;stop-opacity:0;"
         offset="1"
         id="stop4238" />
    </linearGradient>
    <linearGradient
       inkscape:collect="always"
       xlink:href="#linearGradient4234"
       id="linearGradient4240"
       x1="333.21429"
       y1="349.50507"
       x2="333.21429"
       y2="609.50507"
       gradientUnits="userSpaceOnUse" />
    <filter
       inkscape:collect="always"
       style="color-interpolation-filters:sRGB"
       id="filter4256"
       x="-0.048"
       width="1.096"
       y="-0.048"
       height="1.096">
      <feGaussianBlur
         inkscape:collect="always"
         stdDeviation="5.12"
         id="feGaussianBlur4258" />
    </filter>
    <mask
       maskUnits="userSpaceOnUse"
       id="mask4274">
      <rect
         style="opacity:1;fill:#ffffff;fill-opacity:1;stroke:none;stroke-width:3.77952766;stroke-linecap:butt;stroke-linejoin:round;stroke-miterlimit:4;stroke-dasharray:none;stroke-dashoffset:0;stroke-opacity:1;paint-order:stroke fill markers"
         id="rect4276"
         width="256"
         height="256"
         x="203.80531"
         y="350.53485"
         rx="29.299999" />
    </mask>
  </defs>
  <sodipodi:namedview
     id="base"
     pagecolor="#ffffff"
     bordercolor="#666666"
     borderopacity="1.0"
     inkscape:pageopacity="0.0"
     inkscape:pageshadow="2"
     inkscape:zoom="1.4"
     inkscape:cx="83.459654"
     inkscape:cy="140.7928"
     inkscape:document-units="px"
     inkscape:current-layer="layer1"
     showgrid="false"
     inkscape:snap-bbox="true"
     inkscape:bbox-paths="true"
     inkscape:bbox-nodes="true"
     inkscape:snap-bbox-edge-midpoints="true"
     inkscape:snap-bbox-midpoints="true"
     fit-margin-top="0"
     fit-margin-left="0"
     fit-margin-right="0"
     fit-margin-bottom="0"
     inkscape:window-width="1680"
     inkscape:window-height="1026"
     inkscape:window-x="1920"
     inkscape:window-y="24"
     inkscape:window-maximized="1" />
  <metadata
     id="metadata7">
    <rdf:RDF>
      <cc:Work
         rdf:about="">
        <dc:format>image/svg+xml</dc:format>
        <dc:type
           rdf:resource="http://purl.org/dc/dcmitype/StillImage" />
        <dc:title></dc:title>
      </cc:Work>
    </rdf:RDF>
  </metadata>
  <g
     inkscape:label="Layer 1"
     inkscape:groupmode="layer"
     id="layer1"
     transform="translate(-203.80531,-350.53485)">
    <g
       id="g4260"
       mask="url(#mask4274)">
      <g
         mask="none"
         transform="translate(-6.6947019,10.029736)"
         id="g4217">
        <path
           inkscape:connector-curvature="0"
           id="path4223"
           d="m 210.50002,469.5051 0,-129 129.5,0 129.5,0 0,129 0,129 -129.5,0 -129.5,0 0,-129 z"
           style="fill:#7bd18c" />
        <path
           inkscape:connector-curvature="0"
           id="path4221"
           d="m 210.50002,469.5051 0,-129 129.5,0 129.5,0 0,15.90218 0,15.90217 -3.09867,1.0802 c -2.06835,0.72103 -3.71069,0.75266 -4.93931,0.0951 -1.21616,-0.65087 -2.05089,-0.64489 -2.46035,0.0176 -1.2178,1.97045 0.69268,3.00271 5.55735,3.00271 l 4.94098,0 0,110.91405 0,110.91405 -21.90845,0.11062 c -16.89959,0.0853 -22.02628,-0.18081 -22.42386,-1.16406 -0.38498,-0.95206 -0.72574,-0.98048 -1.34641,-0.11231 -1.21747,1.70297 -33.06346,1.78533 -35.15683,0.0909 -1.23326,-0.99822 -1.39553,-0.99888 -0.79739,-0.003 0.59522,0.99075 -6.71031,1.25 -35.22471,1.25 -38.4385,0 -37.58087,0.11854 -36.02724,-4.97951 1.9882,-6.52403 3.22871,-11.59869 3.02798,-12.38683 -0.12136,-0.47649 0.40188,-1.82649 1.16276,-3 0.76088,-1.17351 1.65243,-4.78526 1.98123,-8.02611 0.3288,-3.24085 1.07372,-6.36835 1.65537,-6.95 0.58165,-0.5819 1.05755,-1.88602 1.05755,-2.89829 0,-1.01227 0.92515,-3.09182 2.05588,-4.62122 1.2626,-1.70776 2.20689,-4.80911 2.44725,-8.03752 0.21526,-2.89124 1.24393,-6.70178 2.28595,-8.46786 1.04201,-1.76608 1.93545,-4.64915 1.98543,-6.40683 0.05,-1.75768 0.79615,-4.20273 1.65818,-5.43344 1.8876,-2.69493 2.02169,-5.93196 0.31731,-7.65996 -1.00151,-1.01538 -0.90211,-1.52435 0.5,-2.56024 2.51478,-1.85795 2.15484,-3.57244 -0.75,-3.57244 -1.375,0 -2.5,-0.45 -2.5,-1 0,-2.0343 -2.71751,-0.9154 -3.85844,1.58866 -1.04456,2.29256 -0.94386,2.65028 0.88037,3.12733 2.53222,0.66219 2.06294,2.67414 -0.71991,3.08648 -1.40873,0.20874 -2.22097,-0.38454 -2.62105,-1.91445 -0.50067,-1.91454 -0.80011,-2.03403 -2.1954,-0.87604 -2.15595,1.78927 -6.52808,1.9545 -8.92919,0.33745 -1.63665,-1.10223 -2.22536,-1.05398 -3.72756,0.30548 -1.372,1.24165 -2.77052,1.44582 -6.05638,0.88419 -2.34984,-0.40164 -5.39744,-0.67417 -6.77244,-0.60562 -8.27483,0.41255 -10.07501,0.78035 -11.22553,2.29352 -0.70096,0.92191 -3.96949,3.0805 -7.26341,4.79687 -7.27907,3.79293 -7.073,3.5941 -5.58417,5.38804 1.64986,1.98796 -0.19807,5.34553 -3.1747,5.76825 -1.69302,0.24043 -2.17448,0.87867 -1.9392,2.57064 0.22577,1.6235 -0.36599,2.50895 -2.12329,3.17707 -3.07239,1.16813 -4.55142,6.01038 -2.23225,7.30826 1.37524,0.76962 1.40544,1.23962 0.22972,3.57499 -0.74453,1.47889 -2.00483,4.03237 -2.80066,5.67442 -0.79583,1.64204 -2.35027,3.44204 -3.4543,4 -1.10404,0.55795 -3.56544,2.25441 -5.46978,3.7699 -3.34555,2.66243 -3.38648,2.77608 -1.21243,3.36663 3.86312,1.04938 1.99392,3.20836 -2.12516,2.45463 -0.48134,-0.0881 -1.69048,0.57772 -2.68699,1.47954 -0.9965,0.90183 -2.28641,1.34637 -2.86646,0.98788 -1.85512,-1.14653 -6.33746,4.2837 -5.81066,7.03946 0.25908,1.35528 0.0814,2.70497 -0.39484,2.9993 -0.47624,0.29434 -0.86589,1.21362 -0.86589,2.04286 0,0.82924 -1.125,2.98265 -2.5,4.78537 -1.375,1.80272 -2.5,3.74521 -2.5,4.31665 0,1.62855 -3.74568,2.24382 -13.75,2.25859 l -9.25,0.0136 0,-129 z m 152.56506,-6.0811 c 6.66136,-4.53214 9.14953,-5.91577 10.67137,-5.93421 2.53783,-0.0308 4.05861,-1.86231 4.67516,-5.63053 0.48046,-2.93648 1.10179,-3.86557 2.60951,-3.90208 2.8041,-0.0679 7.47374,-3.37559 7.50643,-5.31709 0.0151,-0.89924 1.50327,-2.72919 3.30696,-4.06655 4.09932,-3.03948 4.85384,-8.57488 1.31552,-9.65107 -1.1825,-0.35966 -2.96268,-1.36823 -3.95595,-2.24126 -1.47999,-1.30084 -2.1626,-1.3646 -3.78203,-0.35325 -1.1889,0.74249 -5.64809,1.24127 -11.19406,1.25212 -14.76645,0.0289 -17.68647,0.6659 -19.59016,4.2738 -0.8953,1.69677 -2.86531,4.29297 -4.37781,5.76934 -1.5125,1.47636 -2.75,3.33855 -2.75,4.1382 0,0.79964 -2.7,3.34784 -6,5.66266 -3.3,2.31482 -6,4.811 -6,5.54706 0,0.73607 -1.34969,1.80882 -2.99932,2.38388 -2.95571,1.03037 -8.00068,5.63105 -8.00068,7.2961 0,0.46969 1.15458,0.85398 2.56574,0.85398 1.41116,0 3.51986,0.51063 4.686,1.13473 2.51226,1.34452 15.36454,2.78818 21.76823,2.44517 3.23143,-0.17309 5.9525,-1.21675 9.54509,-3.661 z m 5.98773,-7.83349 c -0.32198,-0.52097 -0.15917,-1.21065 0.3618,-1.53262 0.52097,-0.32198 1.21065,-0.15917 1.53262,0.3618 0.32198,0.52097 0.15917,1.21065 -0.3618,1.53262 -0.52097,0.32198 -1.21065,0.15917 -1.53262,-0.3618 z m 42.64695,-50.76617 c 1.3259,-1.19992 4.27529,-1.80768 10.30953,-2.12439 5.4866,-0.28798 8.85289,-0.9263 9.59397,-1.81924 0.62791,-0.75659 2.0089,-1.37561 3.06886,-1.37561 1.05997,0 3.22634,-0.6718 4.81414,-1.49289 3.67778,-1.90185 10.62351,-8.23069 9.8652,-8.989 -0.31666,-0.31666 -6.43869,-0.76248 -13.60453,-0.99071 l -13.02878,-0.41497 -10.11264,4.38958 c -5.56195,2.41428 -11.11116,5.08898 -12.33157,5.94379 -1.22041,0.85481 -3.00297,1.5542 -3.96124,1.5542 -0.95827,0 -2.19869,0.85275 -2.75648,1.895 -1.75097,3.27171 1.07928,4.3578 12.86506,4.9369 2.00672,0.0986 4.18914,-0.52682 5.27848,-1.51266 z"
           style="fill:#c900c9" />
        <path
           inkscape:connector-curvature="0"
           id="path4219"
           d="m 232.00578,595.51442 c -0.3619,-0.58557 0.78584,-2.41344 2.55055,-4.06192 3.00102,-2.80337 3.10296,-3.11393 1.57594,-4.80126 -1.52583,-1.68602 -1.38525,-2.15862 2.14917,-7.22508 2.53298,-3.63094 4.59689,-5.53525 6.25018,-5.76688 3.08395,-0.43205 4.92643,-1.9136 6.04782,-4.86308 0.47909,-1.26011 1.50473,-2.2911 2.2792,-2.2911 0.77446,0 1.64347,-0.9 1.93113,-2 0.30893,-1.18137 1.36401,-2 2.57767,-2 2.6085,0 6.13258,-3.72865 6.13258,-6.48856 0,-1.16129 0.5625,-2.68173 1.25,-3.37876 1.00165,-1.01553 0.88894,-1.53398 -0.56728,-2.60944 -1.62621,-1.20101 -1.68816,-1.79846 -0.58926,-5.68268 1.57175,-5.55551 3.67515,-7.77346 8.37785,-8.83409 2.07527,-0.46805 3.3807,-0.47966 2.90095,-0.0258 -0.47974,0.45386 -1.77226,0.99247 -2.87226,1.19692 -1.41615,0.2632 -1.90863,1.02158 -1.68701,2.59786 0.22465,1.59781 -0.37466,2.4876 -2.12329,3.15242 -3.07239,1.16813 -4.55142,6.01038 -2.23225,7.30826 1.37524,0.76962 1.40544,1.23962 0.22972,3.57499 -0.74453,1.47889 -2.00483,4.03237 -2.80066,5.67442 -0.79583,1.64204 -2.35027,3.44204 -3.4543,4 -1.10404,0.55795 -3.56544,2.25441 -5.46978,3.7699 -3.34555,2.66243 -3.38648,2.77608 -1.21243,3.36663 3.86312,1.04938 1.99392,3.20836 -2.12516,2.45463 -0.48134,-0.0881 -1.69048,0.57772 -2.68699,1.47954 -0.9965,0.90183 -2.28641,1.34637 -2.86646,0.98788 -1.85512,-1.14653 -6.33746,4.2837 -5.81066,7.03946 0.25908,1.35528 0.0814,2.70497 -0.39484,2.9993 -0.47624,0.29434 -0.86589,1.18749 -0.86589,1.9848 0,2.21492 -5.73516,9.66986 -6.49424,8.44164 z m 84.67812,-1.51355 c 0.62755,-1.37732 1.33399,-2.31123 1.56987,-2.07536 0.70628,0.70629 -0.81585,4.57959 -1.7997,4.57959 -0.50114,0 -0.39772,-1.1269 0.22983,-2.50423 z m 1.3853,-6.49577 c 0.37001,-1.375 1.05463,-3.175 1.52137,-4 0.67776,-1.19797 0.85476,-1.08544 0.87904,0.55887 0.0167,1.13238 -0.66789,2.93238 -1.52137,4 -1.49103,1.86514 -1.52544,1.84326 -0.87904,-0.55887 z m 1.43082,-6.77749 c 0,-0.42763 0.60903,-1.66513 1.35341,-2.75 0.74437,-1.08488 1.61847,-4.62411 1.94245,-7.86496 0.32397,-3.24085 1.06494,-6.36835 1.64659,-6.95 0.58165,-0.58165 1.05755,-1.90907 1.05755,-2.94982 0,-1.04075 0.9,-3.03644 2,-4.43486 1.1,-1.39842 2,-2.087 2,-1.53017 0,0.55682 -0.62854,1.53406 -1.39677,2.17162 -0.76822,0.63757 -1.16186,2.05747 -0.87477,3.15533 0.2909,1.11238 -0.2112,2.80629 -1.1341,3.82609 -0.91086,1.00648 -1.93016,4.25418 -2.26511,7.21711 -0.33495,2.96293 -1.23261,6.62465 -1.99481,8.13715 -1.35745,2.69373 -2.33444,3.51925 -2.33444,1.97251 z m 10.31105,-31.952 c -0.0744,-3.24257 0.0379,-3.44313 0.80161,-1.43239 0.48845,1.28597 0.52737,2.9827 0.0865,3.77051 -0.52083,0.93069 -0.83189,0.11174 -0.88809,-2.33812 z m 0.69269,-5.27847 c 0.002,-0.82062 0.83054,-2.84782 1.84108,-4.50488 1.01053,-1.65706 1.87856,-4.46275 1.92894,-6.23485 0.0504,-1.77211 0.7969,-4.22896 1.65893,-5.45967 1.8876,-2.69493 2.02169,-5.93196 0.31731,-7.65996 -1.00151,-1.01538 -0.90211,-1.52435 0.5,-2.56024 2.51478,-1.85795 2.15484,-3.57244 -0.75,-3.57244 -1.375,0 -2.5,-0.45 -2.5,-1 0,-2.0343 -2.71751,-0.9154 -3.85844,1.58866 -1.04456,2.29256 -0.94386,2.65028 0.88037,3.12733 2.53222,0.66219 2.06294,2.67414 -0.71991,3.08648 -1.40873,0.20874 -2.22097,-0.38454 -2.62105,-1.91445 -0.50067,-1.91454 -0.80011,-2.03403 -2.1954,-0.87604 -2.15595,1.78927 -6.52808,1.9545 -8.92919,0.33745 -1.63665,-1.10223 -2.22536,-1.05398 -3.72756,0.30548 -1.372,1.24165 -2.77052,1.44582 -6.05638,0.88419 -2.34984,-0.40164 -5.39744,-0.67417 -6.77244,-0.60562 -8.58871,0.4282 -10.24532,0.75351 -11.03648,2.16723 -0.47764,0.85349 -3.81483,3.04731 -7.41598,4.87516 -6.46565,3.28179 -7.50351,4.31527 -5.54754,5.52413 0.55,0.33992 1,1.03707 1,1.54923 0,0.51216 -0.9,0.16059 -2,-0.78126 -2.7363,-2.34289 -2.57715,-2.76521 1.92664,-5.11272 2.15965,-1.12567 4.74715,-2.48826 5.75,-3.02796 1.00285,-0.53971 2.61086,-1.22502 3.57336,-1.52291 2.34839,-0.72681 2.2169,-2.24902 -0.25,-2.89413 -1.1,-0.28766 -2,-1.25426 -2,-2.14802 0,-2.32727 3.0521,-3.21146 4.45637,-1.29101 1.8761,2.56572 6.01614,3.12051 8.9485,1.19916 2.42962,-1.59195 2.81583,-1.59353 6.12123,-0.025 3.22123,1.52857 3.79985,1.53852 6.65458,0.11439 3.58409,-1.78798 5.9975,-1.98157 7.38657,-0.5925 1.77149,1.77149 5.29933,0.004 5.62615,-2.81908 0.24039,-2.07629 0.84648,-2.64817 2.8066,-2.64817 1.375,0 3.09464,-0.5625 3.82143,-1.25 1.73112,-1.63754 4.86966,-1.59728 5.87888,0.0754 0.43983,0.72898 1.5974,1.61877 2.57237,1.97732 2.71508,0.99848 3.33592,3.77908 1.19355,5.34562 -1.44245,1.05475 -1.59082,1.62706 -0.66248,2.5554 1.98526,1.98526 1.47432,7.57706 -0.80375,8.79625 -1.3201,0.7065 -2,2.09382 -2,4.08099 0,1.65584 -1.125,5.12393 -2.5,7.70686 -1.375,2.58293 -2.49832,4.02482 -2.49626,3.20419 z m -37.63955,-28.48535 c -0.34636,-0.90262 -0.15025,-2.12063 0.43581,-2.70669 1.52361,-1.52361 4.41041,-0.13109 4.01242,1.93549 -0.4433,2.30188 -3.64766,2.85743 -4.44823,0.7712 z m 47.37046,-46.65304 c -4.27095,-0.41896 -8.75858,-1.45743 -9.97251,-2.3077 -1.21393,-0.85027 -3.45702,-1.54595 -4.98465,-1.54595 -3.31652,0 -3.36811,-0.30828 -0.75829,-4.53107 1.18403,-1.9158 3.63258,-3.91268 5.91987,-4.82787 2.14536,-0.85841 4.15635,-2.36634 4.46886,-3.35097 0.31251,-0.98463 2.59857,-3.01662 5.08013,-4.51554 5.81394,-3.51175 5.82115,-2.77139 0.0119,1.22545 -2.475,1.70284 -4.5,3.70544 -4.5,4.45022 0,0.74477 -1.34969,1.82464 -2.99932,2.3997 -2.95571,1.03037 -8.00068,5.63105 -8.00068,7.2961 0,0.46969 1.0125,0.86053 2.25,0.86853 1.2375,0.008 4.13308,0.67066 6.43463,1.47256 2.31605,0.80696 8.79078,1.58189 14.5,1.73545 l 10.31541,0.27744 5.04509,-3.5 c 6.53302,-4.53224 9.13545,-5.99646 10.69134,-6.01531 2.53783,-0.0308 4.05861,-1.86231 4.67516,-5.63053 0.48046,-2.93648 1.10179,-3.86557 2.60951,-3.90208 2.8041,-0.0679 7.47374,-3.37559 7.50643,-5.31709 0.0151,-0.89924 1.50327,-2.72919 3.30696,-4.06655 4.09932,-3.03948 4.85384,-8.57488 1.31552,-9.65107 -1.1825,-0.35966 -2.96268,-1.36823 -3.95595,-2.24126 -1.47999,-1.30084 -2.1626,-1.3646 -3.78203,-0.35325 -1.1889,0.74249 -5.64809,1.24127 -11.19406,1.25212 -14.76645,0.0289 -17.68647,0.6659 -19.59016,4.2738 -0.8953,1.69677 -2.86531,4.29297 -4.37781,5.76934 -1.5125,1.47636 -2.75,3.3772 -2.75,4.22407 0,0.84688 -0.38499,1.77772 -0.85554,2.06853 -1.61814,1.00006 0.0674,-4.29243 1.89324,-5.94484 1.00508,-0.90958 1.57432,-2.31336 1.26498,-3.11949 -0.35803,-0.93302 0.21163,-1.66812 1.56744,-2.02268 1.17143,-0.30633 2.12988,-1.16366 2.12988,-1.90516 0,-2.63031 4.55997,-3.78157 16.38686,-4.13722 6.53778,-0.1966 12.69569,-0.79033 13.68426,-1.31939 2.65453,-1.42067 6.63577,-1.16816 7.26074,0.4605 0.30021,0.78234 1.58586,1.56984 2.85699,1.75 1.92525,0.27287 2.36129,1.01253 2.61143,4.42982 0.26516,3.62246 -0.11496,4.46685 -3.25,7.21945 -1.95265,1.71445 -3.55028,3.72131 -3.55028,4.45968 0,2.15811 -5.80007,5.91684 -8.03544,5.20736 -1.69075,-0.53662 -1.96456,-0.14793 -1.96456,2.78887 0,3.41859 -2.41566,6.72238 -4.91526,6.72238 -1.20316,0 -8.36735,4.60774 -12.58474,8.09405 -2.49051,2.05877 -11.38518,2.77785 -21.76535,1.7596 z m 28.81814,-12.76824 c -0.32198,-0.52097 -0.15917,-1.21065 0.3618,-1.53262 0.52097,-0.32198 1.21065,-0.15917 1.53262,0.3618 0.32198,0.52097 0.15917,1.21065 -0.3618,1.53262 -0.52097,0.32198 -1.21065,0.15917 -1.53262,-0.3618 z m 32.44721,-48.63987 c -0.825,-0.17736 -4.0875,-0.60754 -7.25,-0.95596 -4.01994,-0.44289 -5.75,-1.06316 -5.75,-2.06154 0,-0.78542 0.52707,-1.42804 1.17126,-1.42804 0.64419,0 2.05967,-0.7875 3.14551,-1.75 1.90962,-1.69272 1.93744,-1.67979 0.84975,0.395 -1.61722,3.08488 0.0187,4.00367 8.63669,4.85079 6.25646,0.61499 7.58632,0.46167 9.27848,-1.06971 1.46249,-1.32354 4.16947,-1.90277 10.42758,-2.23123 5.4866,-0.28798 8.85289,-0.9263 9.59397,-1.81924 0.62791,-0.75659 2.0089,-1.37561 3.06886,-1.37561 1.05997,0 3.22634,-0.6718 4.81414,-1.49289 3.67778,-1.90185 10.62351,-8.23069 9.8652,-8.989 -0.31666,-0.31666 -6.43869,-0.76248 -13.60453,-0.99071 l -13.02878,-0.41497 -10.11264,4.38958 c -5.56195,2.41428 -11.11116,5.08898 -12.33157,5.94379 -1.22041,0.85481 -2.89964,1.5542 -3.73162,1.5542 -2.05567,0 4.44443,-3.42465 16.29284,-8.58407 l 9.83513,-4.28273 11.66487,0.38631 c 6.41567,0.21247 12.67736,0.4075 13.91486,0.4334 1.36258,0.0285 2.25,0.66928 2.25,1.62462 0,2.36274 -7.93236,9.08051 -12.49621,10.58281 -2.20209,0.72487 -5.56144,2.11033 -7.46523,3.07881 -1.90379,0.96846 -4.26629,1.76085 -5.25,1.76085 -0.98371,0 -1.78856,0.40186 -1.78856,0.89301 0,1.76445 -3.01804,1.9974 -6.58252,0.50807 -3.26311,-1.36342 -3.80619,-1.35928 -5.35324,0.0408 -1.55294,1.40539 -6.09055,1.85791 -10.06424,1.00367 z m -191,-46.69289 0,-19.75265 129.5,0 129.5,0 0,11.5 0,11.5 -4.5,0.175 c -2.475,0.0962 -5.7375,0.30508 -7.25,0.46405 -2.41086,0.25341 -46.32976,1.45087 -64.25,1.7518 -3.575,0.06 -7.06645,0.47565 -7.75878,0.92359 -0.69232,0.44794 -4.126,0.68568 -7.6304,0.5283 -4.09024,-0.18369 -6.92312,0.17156 -7.91191,0.99218 -1.41447,1.17391 -11.82962,1.7394 -20.19891,1.0967 -1.65,-0.12671 -5.2399,0.24787 -7.97755,0.83241 -3.15404,0.67343 -5.61962,0.71915 -6.73019,0.12479 -1.16738,-0.62476 -3.84632,-0.40748 -8.02245,0.6507 -11.57911,2.93398 -20.80389,3.83876 -36.72146,3.6017 -1.8984,-0.0283 -3.9234,0.32079 -4.5,0.77571 -0.57659,0.45491 -6.22335,1.11738 -12.54835,1.47215 -6.325,0.35477 -19.6,1.10513 -29.5,1.66746 -9.9,0.56233 -21.4875,1.11835 -25.75,1.23559 l -7.75,0.21317 0,-19.75265 z m 247.33583,15.68013 c -0.33077,-0.86197 -0.13364,-2.03497 0.43805,-2.60666 0.71927,-0.71927 0.99119,-0.46754 0.88279,0.81721 -0.12483,1.47938 0.75776,1.97855 4.34333,2.45648 l 4.5,0.5998 -4.78138,0.1502 c -3.51712,0.11048 -4.94041,-0.26421 -5.38279,-1.41703 z m 3.92532,-2.25022 c -0.73728,-0.46826 0.2749,-0.81879 2.5,-0.86578 2.84202,-0.06 3.25911,0.11552 1.73885,0.73184 -2.60547,1.05627 -2.77804,1.06172 -4.23885,0.13394 z"
           style="fill:#ad00ad" />
      </g>
      <rect
         y="349.50507"
         x="202.85715"
         height="260"
         width="260.71429"
         id="rect4232"
         style="opacity:1;fill:url(#linearGradient4240);fill-opacity:1;stroke:none;stroke-width:3.77952766;stroke-linecap:butt;stroke-linejoin:round;stroke-miterlimit:4;stroke-dasharray:none;stroke-dashoffset:0;stroke-opacity:1;paint-order:stroke fill markers" />
      <rect
         style="opacity:1;fill:none;fill-opacity:1;stroke:#000000;stroke-width:3.77952766;stroke-linecap:butt;stroke-linejoin:round;stroke-miterlimit:4;stroke-dasharray:none;stroke-dashoffset:0;stroke-opacity:1;paint-order:stroke fill markers;filter:url(#filter4256)"
         id="rect4229"
         width="256"
         height="256"
         x="203.80531"
         y="350.53485"
         rx="29.299999" />
    </g>
    <rect
       rx="29.299999"
       y="350.53485"
       x="203.80531"
       height="256"
       width="256"
       id="rect4272"
       style="opacity:1;fill:none;fill-opacity:1;stroke:none;stroke-width:3.77952766;stroke-linecap:butt;stroke-linejoin:round;stroke-miterlimit:4;stroke-dasharray:none;stroke-dashoffset:0;stroke-opacity:1;paint-order:stroke fill markers" />
  </g>
</svg>
